<svg width="166" height="100" viewBox="0 0 166 100" fill="none" xmlns="http://www.w3.org/2000/svg">
<path d="M14.8282 91.1332L14.7632 91.0682L3.3239 81.6438C2.47895 80.9288 1.17904 81.0588 0.464082 81.9038C-0.250873 82.7487 -0.120885 84.0486 0.724062 84.7636L12.1633 94.188C13.0083 94.9029 14.3082 94.773 15.0232 93.928C15.7381 93.0831 15.6731 91.8481 14.8282 91.1332Z" fill="#BCBCBC"/>
<path d="M4.55935 97.8271C3.71441 97.1122 2.47949 97.1122 1.69954 97.9571C0.919584 98.8021 0.984584 100.037 1.76454 100.817L13.6588 112.061C14.5037 112.841 15.7387 112.776 16.5186 111.996C17.2986 111.151 17.2336 109.916 16.4536 109.136L4.55935 97.8271C4.62435 97.8921 4.62435 97.8271 4.55935 97.8271Z" fill="#BCBCBC"/>
<path d="M23.0182 78.9784C22.2382 78.2634 21.0683 78.2634 20.2884 78.9784C19.4434 79.7583 19.4434 81.0582 20.1584 81.8382L31.0127 93.4724C31.7926 94.3174 33.0926 94.3174 33.8725 93.6024C34.7175 92.8225 34.7175 91.5226 34.0025 90.7426L23.1482 79.1084C23.0832 79.0434 23.0832 79.0434 23.0182 78.9784Z" fill="#BCBCBC"/>
<path d="M30.0364 60.7792C29.1914 59.9992 27.8915 60.0642 27.1766 60.9092C26.3966 61.7541 26.4616 62.989 27.2416 63.769L27.3065 63.834L36.276 72.0885C37.1209 72.8684 38.3559 72.8034 39.1358 71.9585C39.9158 71.1136 39.8508 69.8136 39.0058 69.0987L30.0364 60.7792Z" fill="#BCBCBC"/>
<path d="M37.185 46.025C36.34 45.2451 35.1051 45.3101 34.3251 46.155C33.5452 47 33.6102 48.2999 34.4551 49.0148L39.6548 53.8895C40.4997 54.6695 41.7347 54.6045 42.5146 53.7596C43.2946 52.9146 43.2296 51.6147 42.3846 50.8997L37.185 46.025Z" fill="#BCBCBC"/>
<path d="M38.9416 21.1975C38.1616 20.4826 36.8617 20.4826 36.1468 21.2626C35.3668 22.0425 35.3668 23.3424 36.1468 24.1224L53.2407 41.0213C54.0206 41.8012 55.3206 41.8012 56.1005 41.0213C56.8805 40.2413 56.8805 38.9414 56.1005 38.1615L38.9416 21.1975C39.0066 21.2625 39.0066 21.2625 38.9416 21.1975Z" fill="#BCBCBC"/>
<path d="M63.0551 21.2623C62.2751 20.5473 61.0402 20.5473 60.2603 21.3272C59.4803 22.1072 59.4153 23.4071 60.1953 24.1871L71.2446 35.5614C72.0245 36.3413 73.3244 36.4063 74.1044 35.6263C74.8843 34.8464 74.9493 33.5464 74.1694 32.7665L63.1201 21.3922C63.1201 21.3272 63.0551 21.2623 63.0551 21.2623Z" fill="#BCBCBC"/>
<path d="M63.2485 0.528364C62.4686 -0.186591 61.2336 -0.186607 60.4537 0.593345C59.6737 1.3733 59.6737 2.67323 60.4537 3.45318L75.2728 18.2722C76.0527 19.0522 77.3526 19.0522 78.1326 18.2722C78.9125 17.4923 78.9125 16.1924 78.1326 15.4124L63.3135 0.593344L63.2485 0.528364Z" fill="#BCBCBC"/>
<path d="M62.0154 100.687L61.9504 100.622L51.7461 92.1076C50.9011 91.3927 49.6012 91.5227 48.8863 92.3676C48.1713 93.2126 48.3663 94.5775 49.1462 95.2274L59.3506 103.742C60.1955 104.457 61.4955 104.327 62.2104 103.482C62.8604 102.637 62.7954 101.402 62.0154 100.687Z" fill="#BCBCBC"/>
<path d="M58.2453 77.4177C57.4653 76.7028 56.2304 76.7028 55.4504 77.4828C54.6705 78.2627 54.6705 79.5626 55.4504 80.3426L62.665 87.5571C63.4449 88.4021 64.7449 88.3371 65.5248 87.5571C66.3048 86.7772 66.3048 85.4773 65.5248 84.6973L58.3103 77.4828C58.3103 77.4828 58.3103 77.4177 58.2453 77.4177Z" fill="#BCBCBC"/>
<path d="M67.9286 68.2554L67.8636 68.1903L61.494 63.0557C60.5841 62.3407 59.3492 62.4707 58.6342 63.3807C57.9193 64.2906 58.0493 65.5255 58.9592 66.2405L65.3288 71.3752C66.2387 72.0901 67.4737 71.9601 68.1886 71.0502C68.8386 70.2052 68.7736 68.9703 67.9286 68.2554Z" fill="#BCBCBC"/>
<path d="M73.3896 53.1746C72.6096 52.4597 71.3747 52.4597 70.5947 53.1746C69.7498 53.9546 69.7498 55.2545 70.5297 56.0345L81.4491 67.5387C82.229 68.3837 83.5289 68.3837 84.3089 67.6037C85.1538 66.8238 85.1538 65.5239 84.3739 64.7439L73.4546 53.2396C73.4546 53.2396 73.4546 53.1746 73.3896 53.1746Z" fill="#BCBCBC"/>
<path d="M88.0131 48.4308L81.9685 42.9711C81.1235 42.1911 79.8236 42.2561 79.1086 43.1011C78.3287 43.946 78.3937 45.246 79.2386 45.9609L85.2833 51.4206C86.1282 52.2005 87.4281 52.1355 88.1431 51.2906C88.923 50.5106 88.858 49.2107 88.0131 48.4308Z" fill="#BCBCBC"/>
<path d="M101.728 39.396C101.663 39.396 101.663 39.331 101.598 39.331L86.8435 27.5017C85.9336 26.7868 84.6986 26.9168 83.9837 27.8267C83.2687 28.7367 83.4637 29.9716 84.3087 30.6866L99.1277 42.4508C100.038 43.1658 101.273 43.0358 101.988 42.1258C102.637 41.3459 102.508 40.1109 101.728 39.396Z" fill="#BCBCBC"/>
<path d="M82.2288 79.109C81.4489 78.394 80.279 78.394 79.499 79.109C78.6541 79.8889 78.5891 81.1238 79.369 81.9688L89.9633 93.798C90.7433 94.643 91.9782 94.708 92.8232 93.993C93.6681 93.2131 93.7331 91.9782 93.0182 91.1332L82.4238 79.304C82.3588 79.174 82.2938 79.109 82.2288 79.109Z" fill="#BCBCBC"/>
<path d="M77.0932 93.0828C76.3132 92.3679 75.1433 92.3679 74.3634 93.0828C73.5184 93.7978 73.4534 95.0977 74.1684 95.9426L83.3328 106.342C84.0478 107.187 85.3477 107.252 86.1926 106.537C87.0376 105.822 87.1026 104.522 86.3876 103.677L77.2232 93.2778C77.2232 93.2128 77.1582 93.1478 77.0932 93.0828Z" fill="#BCBCBC"/>
<path d="M98.0234 70.7881C97.1785 70.0731 95.9435 70.0731 95.1636 70.9181C94.3836 71.763 94.4486 72.998 95.2286 73.7779L110.763 88.532C111.543 89.3119 112.842 89.2469 113.622 88.467C114.402 87.622 114.337 86.3871 113.557 85.6072L98.0234 70.7881C98.0884 70.7881 98.0234 70.7881 98.0234 70.7881Z" fill="#BCBCBC"/>
<path d="M111.41 53.0449C110.63 52.33 109.395 52.33 108.615 53.11C107.835 53.8899 107.835 55.1898 108.615 55.9698L116.609 63.8993C117.389 64.6792 118.689 64.6792 119.469 63.8993C120.249 63.1193 120.249 61.8194 119.469 61.0394L111.475 53.11C111.41 53.11 111.41 53.1099 111.41 53.0449Z" fill="#BCBCBC"/>
<path d="M132.926 47.5858C132.861 47.5858 132.861 47.5858 132.926 47.5858L117.912 34.4566C117.067 33.7417 115.767 33.8067 115.052 34.6516C114.337 35.4965 114.467 36.7315 115.247 37.5114L130.261 50.5756C131.106 51.2906 132.406 51.2256 133.121 50.3806C133.771 49.6007 133.706 48.3008 132.926 47.5858Z" fill="#BCBCBC"/>
<path d="M125.909 85.6088C125.194 84.9589 124.024 84.8939 123.244 85.5438C122.399 86.2588 122.269 87.5587 122.984 88.4037L131.824 99.193C132.539 100.038 133.838 100.168 134.683 99.453C135.528 98.738 135.658 97.4381 134.943 96.5931L126.104 85.8038C126.039 85.8038 125.974 85.6738 125.909 85.6088Z" fill="#BCBCBC"/>
<path d="M129.481 71.0503C128.701 70.3354 127.466 70.3354 126.686 71.1153C125.906 71.8953 125.906 73.1952 126.686 73.9752L133.186 80.4747C133.901 81.2547 135.266 81.2547 136.046 80.4747C136.826 79.6948 136.826 78.3949 136.046 77.6149L129.546 71.1153C129.546 71.1153 129.481 71.1153 129.481 71.0503Z" fill="#BCBCBC"/>
<path d="M151.905 99.5169C151.125 98.8019 149.891 98.8019 149.111 99.5819C148.331 100.362 148.331 101.662 149.111 102.442L157.04 110.436C157.755 111.281 159.12 111.216 159.9 110.436C160.68 109.656 160.68 108.356 159.9 107.576L151.97 99.5819C151.97 99.5819 151.97 99.5169 151.905 99.5169Z" fill="#BCBCBC"/>
<path d="M164.449 96.3982L164.384 96.3332L151.255 85.6739C150.41 84.9589 149.11 85.0889 148.395 85.9988C147.68 86.8438 147.745 88.1437 148.72 88.8587L161.849 99.518C162.694 100.233 163.994 100.103 164.709 99.193C165.294 98.3481 165.229 97.1131 164.449 96.3982Z" fill="#BCBCBC"/>
</svg>
