<svg width="98" height="35" viewBox="0 0 98 35" fill="none" xmlns="http://www.w3.org/2000/svg">
<path d="M13.4856 8.55816V26.9616C13.2038 27.0384 12.8068 27.1025 12.2946 27.1537C11.7823 27.2305 11.2444 27.2689 10.6809 27.2689C9.47706 27.2689 8.63181 27.064 8.14515 26.6542C7.65849 26.2444 7.41516 25.5016 7.41516 24.4258V8.55816H1.38314C1.22946 8.30202 1.07577 7.96904 0.922092 7.55922C0.794024 7.14941 0.72999 6.70117 0.72999 6.21451C0.72999 5.34364 0.922092 4.71611 1.3063 4.3319C1.6905 3.92208 2.21558 3.71718 2.88154 3.71718H19.6713C19.8506 3.97331 20.0043 4.30629 20.1323 4.71611C20.2604 5.12593 20.3244 5.57417 20.3244 6.06083C20.3244 6.90608 20.1323 7.53361 19.7481 7.94343C19.3639 8.35325 18.8389 8.55816 18.1729 8.55816H13.4856ZM27.6153 26.9616C27.3592 27.0384 27.0006 27.1025 26.5396 27.1537C26.0785 27.2305 25.5662 27.2689 25.0027 27.2689C23.8501 27.2689 23.0177 27.0896 22.5054 26.7311C21.9931 26.3469 21.737 25.6169 21.737 24.5411V12.8228C21.737 12.1057 21.9163 11.4909 22.2749 10.9786C22.6335 10.4664 23.1329 10.0181 23.7733 9.63393C24.6185 9.12166 25.6303 8.72465 26.8085 8.4429C28.0123 8.13553 29.2674 7.98185 30.5737 7.98185C33.2375 7.98185 34.5694 8.87833 34.5694 10.6713C34.5694 11.1067 34.5054 11.5037 34.3773 11.8623C34.2493 12.2209 34.1084 12.5283 33.9547 12.7844C33.3656 12.6563 32.6484 12.5923 31.8032 12.5923C31.0604 12.5923 30.3176 12.682 29.5748 12.8613C28.832 13.0405 28.1788 13.2839 27.6153 13.5912V26.9616ZM43.3398 26.9616C43.0837 27.0384 42.7251 27.1025 42.2641 27.1537C41.803 27.2305 41.2907 27.2689 40.7272 27.2689C39.5746 27.2689 38.7422 27.0896 38.2299 26.7311C37.7432 26.3469 37.4999 25.6169 37.4999 24.5411V8.75026C37.756 8.67342 38.1146 8.59658 38.5757 8.51974C39.0367 8.4429 39.549 8.40448 40.1125 8.40448C41.2651 8.40448 42.0848 8.59658 42.5714 8.98078C43.0837 9.36499 43.3398 10.095 43.3398 11.1708V26.9616ZM37.1541 3.21771C37.1541 2.34684 37.4487 1.60405 38.0378 0.989319C38.6525 0.374591 39.4465 0.067227 40.4199 0.067227C41.3932 0.067227 42.1744 0.374591 42.7635 0.989319C43.3782 1.60405 43.6856 2.34684 43.6856 3.21771C43.6856 4.11419 43.3782 4.86979 42.7635 5.48452C42.1744 6.09925 41.3932 6.40661 40.4199 6.40661C39.4465 6.40661 38.6525 6.09925 38.0378 5.48452C37.4487 4.86979 37.1541 4.11419 37.1541 3.21771ZM57.1103 27.5763C56.4443 27.5763 55.8296 27.5123 55.2661 27.3842C54.7026 27.2818 54.1903 27.1409 53.7293 26.9616V33.8388C53.4731 33.9157 53.1145 33.9925 52.6535 34.0694C52.1925 34.1462 51.6802 34.1846 51.1167 34.1846C49.9641 34.1846 49.1316 33.9925 48.6193 33.6083C48.1071 33.2241 47.8509 32.4941 47.8509 31.4184V12.4002C47.8509 11.7343 47.9918 11.1964 48.2736 10.7865C48.5553 10.3511 48.9523 9.96691 49.4646 9.63393C50.233 9.14727 51.2191 8.75026 52.423 8.4429C53.6268 8.10992 54.9587 7.94343 56.4187 7.94343C57.9043 7.94343 59.2618 8.13553 60.4913 8.51974C61.7464 8.87833 62.8221 9.45464 63.7186 10.2487C64.6151 11.0427 65.3066 12.0544 65.7933 13.2839C66.3056 14.5133 66.5617 15.9733 66.5617 17.6638C66.5617 19.2775 66.3184 20.7118 65.8317 21.9669C65.3707 23.1964 64.7175 24.2337 63.8723 25.079C63.027 25.8986 62.0281 26.5261 60.8755 26.9616C59.7229 27.3714 58.4678 27.5763 57.1103 27.5763ZM56.2266 22.9274C57.6097 22.9274 58.6727 22.492 59.4155 21.6211C60.1839 20.7503 60.5681 19.4312 60.5681 17.6638C60.5681 15.8452 60.1967 14.5389 59.4539 13.7449C58.7367 12.9509 57.725 12.5539 56.4187 12.5539C55.8296 12.5539 55.3173 12.6307 54.8819 12.7844C54.4465 12.9125 54.0494 13.0662 53.6909 13.2455V22.2743C54.0494 22.4792 54.4336 22.6457 54.8435 22.7737C55.2533 22.8762 55.7143 22.9274 56.2266 22.9274ZM79.3221 27.5763C78.6562 27.5763 78.0414 27.5123 77.4779 27.3842C76.9144 27.2818 76.4022 27.1409 75.9411 26.9616V33.8388C75.685 33.9157 75.3264 33.9925 74.8654 34.0694C74.4043 34.1462 73.892 34.1846 73.3285 34.1846C72.1759 34.1846 71.3435 33.9925 70.8312 33.6083C70.3189 33.2241 70.0628 32.4941 70.0628 31.4184V12.4002C70.0628 11.7343 70.2037 11.1964 70.4854 10.7865C70.7672 10.3511 71.1642 9.96691 71.6764 9.63393C72.4449 9.14727 73.431 8.75026 74.6348 8.4429C75.8387 8.10992 77.1706 7.94343 78.6306 7.94343C80.1162 7.94343 81.4737 8.13553 82.7031 8.51974C83.9582 8.87833 85.034 9.45464 85.9305 10.2487C86.8269 11.0427 87.5185 12.0544 88.0052 13.2839C88.5174 14.5133 88.7736 15.9733 88.7736 17.6638C88.7736 19.2775 88.5302 20.7118 88.0436 21.9669C87.5825 23.1964 86.9294 24.2337 86.0841 25.079C85.2389 25.8986 84.24 26.5261 83.0873 26.9616C81.9347 27.3714 80.6797 27.5763 79.3221 27.5763ZM78.4385 22.9274C79.8216 22.9274 80.8846 22.492 81.6274 21.6211C82.3958 20.7503 82.78 19.4312 82.78 17.6638C82.78 15.8452 82.4086 14.5389 81.6658 13.7449C80.9486 12.9509 79.9369 12.5539 78.6306 12.5539C78.0414 12.5539 77.5292 12.6307 77.0937 12.7844C76.6583 12.9125 76.2613 13.0662 75.9027 13.2455V22.2743C76.2613 22.4792 76.6455 22.6457 77.0553 22.7737C77.4651 22.8762 77.9262 22.9274 78.4385 22.9274Z" fill="#221314"/>
<path d="M90.9299 24.1569C90.9299 23.1836 91.2245 22.3639 91.8136 21.698C92.4283 21.032 93.2736 20.699 94.3493 20.699C95.3995 20.699 96.232 21.032 96.8467 21.698C97.4614 22.3639 97.7688 23.1836 97.7688 24.1569C97.7688 25.1302 97.4614 25.9498 96.8467 26.6158C96.232 27.2818 95.3995 27.6147 94.3493 27.6147C93.2736 27.6147 92.4283 27.2818 91.8136 26.6158C91.2245 25.9498 90.9299 25.1302 90.9299 24.1569Z" fill="#FE5B3E"/>
</svg>
