<svg width="22" height="14" viewBox="0 0 22 14" fill="none" xmlns="http://www.w3.org/2000/svg">
<path fill-rule="evenodd" clip-rule="evenodd" d="M0.500032 7.0007C0.500032 6.80179 0.57905 6.61103 0.719702 6.47037C0.860355 6.32972 1.05112 6.2507 1.25003 6.2507H18.9395L14.219 1.5317C14.1493 1.46197 14.094 1.37919 14.0562 1.28808C14.0185 1.19697 13.9991 1.09932 13.9991 1.0007C13.9991 0.902087 14.0185 0.804437 14.0562 0.713328C14.094 0.622219 14.1493 0.539435 14.219 0.469703C14.2888 0.399971 14.3715 0.344657 14.4627 0.306918C14.5538 0.26918 14.6514 0.249756 14.75 0.249756C14.8486 0.249756 14.9463 0.26918 15.0374 0.306918C15.1285 0.344657 15.2113 0.399971 15.281 0.469703L21.281 6.4697C21.3509 6.53937 21.4063 6.62214 21.4441 6.71325C21.4819 6.80437 21.5014 6.90205 21.5014 7.0007C21.5014 7.09935 21.4819 7.19703 21.4441 7.28815C21.4063 7.37927 21.3509 7.46203 21.281 7.5317L15.281 13.5317C15.2113 13.6014 15.1285 13.6567 15.0374 13.6945C14.9463 13.7322 14.8486 13.7516 14.75 13.7516C14.6514 13.7516 14.5538 13.7322 14.4627 13.6945C14.3715 13.6567 14.2888 13.6014 14.219 13.5317C14.1493 13.462 14.094 13.3792 14.0562 13.2881C14.0185 13.197 13.9991 13.0993 13.9991 13.0007C13.9991 12.9021 14.0185 12.8044 14.0562 12.7133C14.094 12.6222 14.1493 12.5394 14.219 12.4697L18.9395 7.7507H1.25003C1.05112 7.7507 0.860355 7.67169 0.719702 7.53103C0.57905 7.39038 0.500032 7.19962 0.500032 7.0007Z" fill="white"/>
</svg>
